<mxfile host="65bd71144e">
    <diagram id="0cvwH3fgF8dsvQLhICZx" name="Макеты">
        <mxGraphModel dx="1043" dy="862" grid="1" gridSize="10" guides="1" tooltips="1" connect="1" arrows="1" fold="1" page="1" pageScale="1" pageWidth="827" pageHeight="1169" math="0" shadow="0">
            <root>
                <mxCell id="0"/>
                <mxCell id="1" parent="0"/>
                <mxCell id="3" value="Page - ADRs list (Main)" style="swimlane;startSize=20;" vertex="1" parent="1">
                    <mxGeometry x="80" y="40" width="200" height="240" as="geometry"/>
                </mxCell>
                <mxCell id="30" value="New ADR" style="rounded=1;whiteSpace=wrap;html=1;" vertex="1" parent="3">
                    <mxGeometry x="120" y="70" width="70" height="20" as="geometry"/>
                </mxCell>
                <mxCell id="h55M-w-PevC6P2LLm7kX-82" value="" style="group" vertex="1" connectable="0" parent="3">
                    <mxGeometry y="20" width="200" height="40" as="geometry"/>
                </mxCell>
                <mxCell id="h55M-w-PevC6P2LLm7kX-83" value="Header" style="rounded=1;whiteSpace=wrap;html=1;" vertex="1" parent="h55M-w-PevC6P2LLm7kX-82">
                    <mxGeometry width="200" height="40" as="geometry"/>
                </mxCell>
                <mxCell id="h55M-w-PevC6P2LLm7kX-84" value="Profile" style="ellipse;whiteSpace=wrap;html=1;" vertex="1" parent="h55M-w-PevC6P2LLm7kX-82">
                    <mxGeometry x="140" y="5" width="50" height="30" as="geometry"/>
                </mxCell>
                <mxCell id="h55M-w-PevC6P2LLm7kX-85" value="Logo" style="ellipse;whiteSpace=wrap;html=1;" vertex="1" parent="h55M-w-PevC6P2LLm7kX-82">
                    <mxGeometry x="10" y="5" width="50" height="30" as="geometry"/>
                </mxCell>
                <mxCell id="31" value="Page - New ADR" style="swimlane;startSize=20;" vertex="1" parent="1">
                    <mxGeometry x="320" y="40" width="200" height="240" as="geometry"/>
                </mxCell>
                <mxCell id="33" value="" style="group" vertex="1" connectable="0" parent="31">
                    <mxGeometry y="20" width="200" height="40" as="geometry"/>
                </mxCell>
                <mxCell id="34" value="Header" style="rounded=1;whiteSpace=wrap;html=1;" vertex="1" parent="33">
                    <mxGeometry width="200" height="40" as="geometry"/>
                </mxCell>
                <mxCell id="35" value="Profile" style="ellipse;whiteSpace=wrap;html=1;" vertex="1" parent="33">
                    <mxGeometry x="140" y="5" width="50" height="30" as="geometry"/>
                </mxCell>
                <mxCell id="36" value="Logo" style="ellipse;whiteSpace=wrap;html=1;" vertex="1" parent="33">
                    <mxGeometry x="10" y="5" width="50" height="30" as="geometry"/>
                </mxCell>
                <mxCell id="40" value="Title" style="rounded=0;whiteSpace=wrap;html=1;" vertex="1" parent="31">
                    <mxGeometry x="10" y="110" width="180" height="20" as="geometry"/>
                </mxCell>
                <mxCell id="41" value="Proposal description" style="rounded=0;whiteSpace=wrap;html=1;" vertex="1" parent="31">
                    <mxGeometry x="10" y="140" width="180" height="20" as="geometry"/>
                </mxCell>
                <mxCell id="43" value="Editors List" style="rounded=0;whiteSpace=wrap;html=1;" vertex="1" parent="31">
                    <mxGeometry x="10" y="170" width="180" height="20" as="geometry"/>
                </mxCell>
                <mxCell id="55" value="Jury" style="rounded=0;whiteSpace=wrap;html=1;" vertex="1" parent="31">
                    <mxGeometry x="10" y="200" width="180" height="20" as="geometry"/>
                </mxCell>
                <mxCell id="61" value="Create draft" style="rounded=1;whiteSpace=wrap;html=1;" vertex="1" parent="31">
                    <mxGeometry x="94" y="70" width="96" height="20" as="geometry"/>
                </mxCell>
                <mxCell id="58" style="edgeStyle=none;html=1;dashed=1;fillColor=#b0e3e6;strokeColor=#0e8088;entryX=0;entryY=0.5;entryDx=0;entryDy=0;" edge="1" parent="1" source="30" target="31">
                    <mxGeometry relative="1" as="geometry">
                        <mxPoint x="360" y="130" as="targetPoint"/>
                        <Array as="points">
                            <mxPoint x="300" y="120"/>
                            <mxPoint x="300" y="160"/>
                        </Array>
                    </mxGeometry>
                </mxCell>
                <mxCell id="59" value="Page - ADR Edit" style="swimlane;startSize=20;" vertex="1" parent="1">
                    <mxGeometry x="560" y="40" width="200" height="240" as="geometry"/>
                </mxCell>
                <mxCell id="67" value="Head info compact (title/desc/...)" style="rounded=0;whiteSpace=wrap;html=1;" vertex="1" parent="59">
                    <mxGeometry y="60" width="140" height="30" as="geometry"/>
                </mxCell>
                <mxCell id="69" value="{version}-draft" style="rounded=0;whiteSpace=wrap;html=1;" vertex="1" parent="59">
                    <mxGeometry x="10" y="100" width="90" height="20" as="geometry"/>
                </mxCell>
                <mxCell id="71" value="Publish" style="rounded=1;whiteSpace=wrap;html=1;" vertex="1" parent="59">
                    <mxGeometry x="140" y="60" width="60" height="30" as="geometry"/>
                </mxCell>
                <mxCell id="h55M-w-PevC6P2LLm7kX-86" value="" style="group" vertex="1" connectable="0" parent="59">
                    <mxGeometry y="20" width="200" height="40" as="geometry"/>
                </mxCell>
                <mxCell id="h55M-w-PevC6P2LLm7kX-87" value="Header" style="rounded=1;whiteSpace=wrap;html=1;" vertex="1" parent="h55M-w-PevC6P2LLm7kX-86">
                    <mxGeometry width="200" height="40" as="geometry"/>
                </mxCell>
                <mxCell id="h55M-w-PevC6P2LLm7kX-88" value="Profile" style="ellipse;whiteSpace=wrap;html=1;" vertex="1" parent="h55M-w-PevC6P2LLm7kX-86">
                    <mxGeometry x="140" y="5" width="50" height="30" as="geometry"/>
                </mxCell>
                <mxCell id="h55M-w-PevC6P2LLm7kX-89" value="Logo" style="ellipse;whiteSpace=wrap;html=1;" vertex="1" parent="h55M-w-PevC6P2LLm7kX-86">
                    <mxGeometry x="10" y="5" width="50" height="30" as="geometry"/>
                </mxCell>
                <mxCell id="h55M-w-PevC6P2LLm7kX-98" value="Text editor. Autosave." style="shape=process;whiteSpace=wrap;html=1;backgroundOutline=1;" vertex="1" parent="59">
                    <mxGeometry x="10" y="130" width="180" height="100" as="geometry"/>
                </mxCell>
                <mxCell id="62" style="edgeStyle=none;html=1;dashed=1;fillColor=#b0e3e6;strokeColor=#0e8088;exitX=1;exitY=0.5;exitDx=0;exitDy=0;entryX=0;entryY=0.5;entryDx=0;entryDy=0;" edge="1" parent="1" source="61" target="59">
                    <mxGeometry relative="1" as="geometry">
                        <mxPoint x="590" y="140" as="targetPoint"/>
                        <mxPoint x="215" y="140" as="sourcePoint"/>
                        <Array as="points">
                            <mxPoint x="540" y="120"/>
                            <mxPoint x="540" y="160"/>
                        </Array>
                    </mxGeometry>
                </mxCell>
                <mxCell id="VfVo40MpDsQj99MbKtfl-71" value="Page - ADR Discussion" style="swimlane;startSize=20;" vertex="1" parent="1">
                    <mxGeometry x="560" y="320" width="200" height="240" as="geometry"/>
                </mxCell>
                <mxCell id="h55M-w-PevC6P2LLm7kX-90" value="Vote" style="rounded=1;whiteSpace=wrap;html=1;" vertex="1" parent="VfVo40MpDsQj99MbKtfl-71">
                    <mxGeometry x="130" y="70" width="60" height="30" as="geometry"/>
                </mxCell>
                <mxCell id="h55M-w-PevC6P2LLm7kX-91" value="Ready to vote" style="rounded=1;whiteSpace=wrap;html=1;" vertex="1" parent="VfVo40MpDsQj99MbKtfl-71">
                    <mxGeometry x="60" y="70" width="60" height="30" as="geometry"/>
                </mxCell>
                <mxCell id="70" value="Text for discussion" style="shape=process;whiteSpace=wrap;html=1;backgroundOutline=1;" vertex="1" parent="VfVo40MpDsQj99MbKtfl-71">
                    <mxGeometry x="10" y="150" width="180" height="80" as="geometry"/>
                </mxCell>
                <mxCell id="h55M-w-PevC6P2LLm7kX-92" value="" style="group" vertex="1" connectable="0" parent="VfVo40MpDsQj99MbKtfl-71">
                    <mxGeometry y="20" width="200" height="40" as="geometry"/>
                </mxCell>
                <mxCell id="h55M-w-PevC6P2LLm7kX-93" value="Header" style="rounded=1;whiteSpace=wrap;html=1;" vertex="1" parent="h55M-w-PevC6P2LLm7kX-92">
                    <mxGeometry width="200" height="40" as="geometry"/>
                </mxCell>
                <mxCell id="h55M-w-PevC6P2LLm7kX-94" value="Profile" style="ellipse;whiteSpace=wrap;html=1;" vertex="1" parent="h55M-w-PevC6P2LLm7kX-92">
                    <mxGeometry x="140" y="5" width="50" height="30" as="geometry"/>
                </mxCell>
                <mxCell id="h55M-w-PevC6P2LLm7kX-95" value="Logo" style="ellipse;whiteSpace=wrap;html=1;" vertex="1" parent="h55M-w-PevC6P2LLm7kX-92">
                    <mxGeometry x="10" y="5" width="50" height="30" as="geometry"/>
                </mxCell>
                <mxCell id="Aowg14sW_mjdpLD7GPFM-72" value="Send to edition" style="rounded=1;whiteSpace=wrap;html=1;strokeWidth=1;" vertex="1" parent="VfVo40MpDsQj99MbKtfl-71">
                    <mxGeometry x="60" y="110" width="60" height="30" as="geometry"/>
                </mxCell>
                <mxCell id="Aowg14sW_mjdpLD7GPFM-73" value="Edit" style="rounded=1;whiteSpace=wrap;html=1;strokeWidth=1;" vertex="1" parent="VfVo40MpDsQj99MbKtfl-71">
                    <mxGeometry x="130" y="110" width="60" height="30" as="geometry"/>
                </mxCell>
                <mxCell id="39" value="" style="group" vertex="1" connectable="0" parent="1">
                    <mxGeometry x="80" y="160" width="190" height="80" as="geometry"/>
                </mxCell>
                <mxCell id="h55M-w-PevC6P2LLm7kX-72" value="" style="group" vertex="1" connectable="0" parent="39">
                    <mxGeometry x="10" y="30" width="180" height="20" as="geometry"/>
                </mxCell>
                <mxCell id="h55M-w-PevC6P2LLm7kX-73" value="" style="rounded=0;whiteSpace=wrap;html=1;" vertex="1" parent="h55M-w-PevC6P2LLm7kX-72">
                    <mxGeometry width="180" height="20" as="geometry"/>
                </mxCell>
                <mxCell id="h55M-w-PevC6P2LLm7kX-74" value="adr-name" style="rounded=1;whiteSpace=wrap;html=1;" vertex="1" parent="h55M-w-PevC6P2LLm7kX-72">
                    <mxGeometry x="38" width="76" height="20" as="geometry"/>
                </mxCell>
                <mxCell id="h55M-w-PevC6P2LLm7kX-75" value="status" style="rounded=1;whiteSpace=wrap;html=1;" vertex="1" parent="h55M-w-PevC6P2LLm7kX-72">
                    <mxGeometry width="38" height="20" as="geometry"/>
                </mxCell>
                <mxCell id="h55M-w-PevC6P2LLm7kX-76" value="author" style="rounded=1;whiteSpace=wrap;html=1;" vertex="1" parent="h55M-w-PevC6P2LLm7kX-72">
                    <mxGeometry x="142.5" width="37.5" height="20" as="geometry"/>
                </mxCell>
                <mxCell id="h55M-w-PevC6P2LLm7kX-77" value="" style="group" vertex="1" connectable="0" parent="39">
                    <mxGeometry x="10" y="60" width="180" height="20" as="geometry"/>
                </mxCell>
                <mxCell id="h55M-w-PevC6P2LLm7kX-78" value="" style="rounded=0;whiteSpace=wrap;html=1;" vertex="1" parent="h55M-w-PevC6P2LLm7kX-77">
                    <mxGeometry width="180" height="20" as="geometry"/>
                </mxCell>
                <mxCell id="h55M-w-PevC6P2LLm7kX-79" value="adr-name" style="rounded=1;whiteSpace=wrap;html=1;" vertex="1" parent="h55M-w-PevC6P2LLm7kX-77">
                    <mxGeometry x="38" width="76" height="20" as="geometry"/>
                </mxCell>
                <mxCell id="h55M-w-PevC6P2LLm7kX-80" value="status" style="rounded=1;whiteSpace=wrap;html=1;" vertex="1" parent="h55M-w-PevC6P2LLm7kX-77">
                    <mxGeometry width="38" height="20" as="geometry"/>
                </mxCell>
                <mxCell id="h55M-w-PevC6P2LLm7kX-81" value="author" style="rounded=1;whiteSpace=wrap;html=1;" vertex="1" parent="h55M-w-PevC6P2LLm7kX-77">
                    <mxGeometry x="142.5" width="37.5" height="20" as="geometry"/>
                </mxCell>
                <mxCell id="h55M-w-PevC6P2LLm7kX-71" value="" style="group" vertex="1" connectable="0" parent="39">
                    <mxGeometry x="10" width="180" height="20" as="geometry"/>
                </mxCell>
                <mxCell id="23" value="" style="rounded=0;whiteSpace=wrap;html=1;" vertex="1" parent="h55M-w-PevC6P2LLm7kX-71">
                    <mxGeometry width="180" height="20" as="geometry"/>
                </mxCell>
                <mxCell id="24" value="adr-name" style="rounded=1;whiteSpace=wrap;html=1;" vertex="1" parent="h55M-w-PevC6P2LLm7kX-71">
                    <mxGeometry x="38" width="76" height="20" as="geometry"/>
                </mxCell>
                <mxCell id="25" value="status" style="rounded=1;whiteSpace=wrap;html=1;" vertex="1" parent="h55M-w-PevC6P2LLm7kX-71">
                    <mxGeometry width="38" height="20" as="geometry"/>
                </mxCell>
                <mxCell id="26" value="author" style="rounded=1;whiteSpace=wrap;html=1;" vertex="1" parent="h55M-w-PevC6P2LLm7kX-71">
                    <mxGeometry x="142.5" width="37.5" height="20" as="geometry"/>
                </mxCell>
                <mxCell id="h55M-w-PevC6P2LLm7kX-97" style="edgeStyle=none;html=1;dashed=1;fillColor=#b0e3e6;strokeColor=#0e8088;exitX=0.5;exitY=1;exitDx=0;exitDy=0;entryX=0.5;entryY=0;entryDx=0;entryDy=0;" edge="1" parent="1" source="59" target="VfVo40MpDsQj99MbKtfl-71">
                    <mxGeometry relative="1" as="geometry">
                        <mxPoint x="570" y="170" as="targetPoint"/>
                        <mxPoint x="520" y="130.0000000000001" as="sourcePoint"/>
                        <Array as="points"/>
                    </mxGeometry>
                </mxCell>
                <mxCell id="h55M-w-PevC6P2LLm7kX-99" value="Page - ADR Voting" style="swimlane;startSize=20;" vertex="1" parent="1">
                    <mxGeometry x="320" y="320" width="200" height="240" as="geometry"/>
                </mxCell>
                <mxCell id="h55M-w-PevC6P2LLm7kX-100" value="Voting process" style="rounded=1;whiteSpace=wrap;html=1;" vertex="1" parent="h55M-w-PevC6P2LLm7kX-99">
                    <mxGeometry x="10" y="70" width="180" height="30" as="geometry"/>
                </mxCell>
                <mxCell id="h55M-w-PevC6P2LLm7kX-102" value="Text for read" style="shape=process;whiteSpace=wrap;html=1;backgroundOutline=1;" vertex="1" parent="h55M-w-PevC6P2LLm7kX-99">
                    <mxGeometry x="10" y="110" width="180" height="120" as="geometry"/>
                </mxCell>
                <mxCell id="h55M-w-PevC6P2LLm7kX-103" value="" style="group" vertex="1" connectable="0" parent="h55M-w-PevC6P2LLm7kX-99">
                    <mxGeometry y="20" width="200" height="40" as="geometry"/>
                </mxCell>
                <mxCell id="h55M-w-PevC6P2LLm7kX-104" value="Header" style="rounded=1;whiteSpace=wrap;html=1;" vertex="1" parent="h55M-w-PevC6P2LLm7kX-103">
                    <mxGeometry width="200" height="40" as="geometry"/>
                </mxCell>
                <mxCell id="h55M-w-PevC6P2LLm7kX-105" value="Profile" style="ellipse;whiteSpace=wrap;html=1;" vertex="1" parent="h55M-w-PevC6P2LLm7kX-103">
                    <mxGeometry x="140" y="5" width="50" height="30" as="geometry"/>
                </mxCell>
                <mxCell id="h55M-w-PevC6P2LLm7kX-106" value="Logo" style="ellipse;whiteSpace=wrap;html=1;" vertex="1" parent="h55M-w-PevC6P2LLm7kX-103">
                    <mxGeometry x="10" y="5" width="50" height="30" as="geometry"/>
                </mxCell>
                <mxCell id="OIhovmfqD7Xepq9QtfI4-71" style="edgeStyle=none;html=1;dashed=1;fillColor=#b0e3e6;strokeColor=#0e8088;exitX=0;exitY=0.5;exitDx=0;exitDy=0;entryX=1;entryY=0.5;entryDx=0;entryDy=0;" edge="1" parent="1" source="VfVo40MpDsQj99MbKtfl-71" target="h55M-w-PevC6P2LLm7kX-99">
                    <mxGeometry relative="1" as="geometry">
                        <mxPoint x="670" y="330" as="targetPoint"/>
                        <mxPoint x="670" y="290" as="sourcePoint"/>
                        <Array as="points"/>
                    </mxGeometry>
                </mxCell>
                <mxCell id="OIhovmfqD7Xepq9QtfI4-72" value="Page - ADR gravestone" style="swimlane;startSize=20;" vertex="1" parent="1">
                    <mxGeometry x="80" y="320" width="200" height="240" as="geometry"/>
                </mxCell>
                <mxCell id="OIhovmfqD7Xepq9QtfI4-73" value="Close" style="rounded=1;whiteSpace=wrap;html=1;" vertex="1" parent="OIhovmfqD7Xepq9QtfI4-72">
                    <mxGeometry x="10" y="70" width="180" height="30" as="geometry"/>
                </mxCell>
                <mxCell id="OIhovmfqD7Xepq9QtfI4-75" value="" style="group" vertex="1" connectable="0" parent="OIhovmfqD7Xepq9QtfI4-72">
                    <mxGeometry y="20" width="200" height="40" as="geometry"/>
                </mxCell>
                <mxCell id="OIhovmfqD7Xepq9QtfI4-76" value="Header" style="rounded=1;whiteSpace=wrap;html=1;" vertex="1" parent="OIhovmfqD7Xepq9QtfI4-75">
                    <mxGeometry width="200" height="40" as="geometry"/>
                </mxCell>
                <mxCell id="OIhovmfqD7Xepq9QtfI4-77" value="Profile" style="ellipse;whiteSpace=wrap;html=1;" vertex="1" parent="OIhovmfqD7Xepq9QtfI4-75">
                    <mxGeometry x="140" y="5" width="50" height="30" as="geometry"/>
                </mxCell>
                <mxCell id="OIhovmfqD7Xepq9QtfI4-78" value="Logo" style="ellipse;whiteSpace=wrap;html=1;" vertex="1" parent="OIhovmfqD7Xepq9QtfI4-75">
                    <mxGeometry x="10" y="5" width="50" height="30" as="geometry"/>
                </mxCell>
                <mxCell id="OIhovmfqD7Xepq9QtfI4-79" value="&lt;span style=&quot;color: rgb(189 , 193 , 198) ; font-family: &amp;#34;arial&amp;#34; , sans-serif ; font-size: 14px ; text-align: left ; background-color: rgb(32 , 33 , 36)&quot;&gt;gravestone&lt;/span&gt;" style="rounded=0;whiteSpace=wrap;html=1;strokeWidth=1;" vertex="1" parent="OIhovmfqD7Xepq9QtfI4-72">
                    <mxGeometry x="10" y="120" width="180" height="80" as="geometry"/>
                </mxCell>
                <mxCell id="OIhovmfqD7Xepq9QtfI4-80" style="edgeStyle=none;html=1;dashed=1;fillColor=#b0e3e6;strokeColor=#0e8088;exitX=0;exitY=0.5;exitDx=0;exitDy=0;entryX=1;entryY=0.5;entryDx=0;entryDy=0;" edge="1" parent="1" source="h55M-w-PevC6P2LLm7kX-99" target="OIhovmfqD7Xepq9QtfI4-72">
                    <mxGeometry relative="1" as="geometry">
                        <mxPoint x="530" y="450" as="targetPoint"/>
                        <mxPoint x="570" y="450" as="sourcePoint"/>
                        <Array as="points"/>
                    </mxGeometry>
                </mxCell>
                <mxCell id="OIhovmfqD7Xepq9QtfI4-81" value="Page - ADR epilog" style="swimlane;startSize=20;" vertex="1" parent="1">
                    <mxGeometry x="80" y="600" width="200" height="240" as="geometry"/>
                </mxCell>
                <mxCell id="OIhovmfqD7Xepq9QtfI4-82" value="Accept" style="rounded=1;whiteSpace=wrap;html=1;" vertex="1" parent="OIhovmfqD7Xepq9QtfI4-81">
                    <mxGeometry x="10" y="70" width="180" height="30" as="geometry"/>
                </mxCell>
                <mxCell id="OIhovmfqD7Xepq9QtfI4-83" value="" style="group" vertex="1" connectable="0" parent="OIhovmfqD7Xepq9QtfI4-81">
                    <mxGeometry y="20" width="200" height="40" as="geometry"/>
                </mxCell>
                <mxCell id="OIhovmfqD7Xepq9QtfI4-84" value="Header" style="rounded=1;whiteSpace=wrap;html=1;" vertex="1" parent="OIhovmfqD7Xepq9QtfI4-83">
                    <mxGeometry width="200" height="40" as="geometry"/>
                </mxCell>
                <mxCell id="OIhovmfqD7Xepq9QtfI4-85" value="Profile" style="ellipse;whiteSpace=wrap;html=1;" vertex="1" parent="OIhovmfqD7Xepq9QtfI4-83">
                    <mxGeometry x="140" y="5" width="50" height="30" as="geometry"/>
                </mxCell>
                <mxCell id="OIhovmfqD7Xepq9QtfI4-86" value="Logo" style="ellipse;whiteSpace=wrap;html=1;" vertex="1" parent="OIhovmfqD7Xepq9QtfI4-83">
                    <mxGeometry x="10" y="5" width="50" height="30" as="geometry"/>
                </mxCell>
                <mxCell id="OIhovmfqD7Xepq9QtfI4-87" value="&lt;span style=&quot;color: rgb(189 , 193 , 198) ; font-family: &amp;#34;arial&amp;#34; , sans-serif ; font-size: 14px ; text-align: left ; background-color: rgb(32 , 33 , 36)&quot;&gt;epilog&lt;/span&gt;" style="rounded=0;whiteSpace=wrap;html=1;strokeWidth=1;" vertex="1" parent="OIhovmfqD7Xepq9QtfI4-81">
                    <mxGeometry x="10" y="120" width="180" height="80" as="geometry"/>
                </mxCell>
                <mxCell id="XlvJEHAu8bwnbY3Q8JXU-71" style="edgeStyle=none;html=1;dashed=1;fillColor=#b0e3e6;strokeColor=#0e8088;exitX=0.25;exitY=1;exitDx=0;exitDy=0;entryX=0.5;entryY=0;entryDx=0;entryDy=0;" edge="1" parent="1" source="h55M-w-PevC6P2LLm7kX-99" target="OIhovmfqD7Xepq9QtfI4-81">
                    <mxGeometry relative="1" as="geometry">
                        <mxPoint x="290" y="450" as="targetPoint"/>
                        <mxPoint x="330" y="450" as="sourcePoint"/>
                        <Array as="points">
                            <mxPoint x="370" y="580"/>
                            <mxPoint x="180" y="580"/>
                        </Array>
                    </mxGeometry>
                </mxCell>
                <mxCell id="XlvJEHAu8bwnbY3Q8JXU-72" style="edgeStyle=none;html=1;dashed=1;fillColor=#b0e3e6;strokeColor=#0e8088;entryX=0;entryY=0.75;entryDx=0;entryDy=0;exitX=0.5;exitY=1;exitDx=0;exitDy=0;" edge="1" parent="1" source="h55M-w-PevC6P2LLm7kX-78" target="59">
                    <mxGeometry relative="1" as="geometry">
                        <mxPoint x="330" y="170" as="targetPoint"/>
                        <mxPoint x="166" y="260" as="sourcePoint"/>
                        <Array as="points">
                            <mxPoint x="180" y="300"/>
                            <mxPoint x="540" y="300"/>
                            <mxPoint x="540" y="220"/>
                        </Array>
                    </mxGeometry>
                </mxCell>
                <mxCell id="XlvJEHAu8bwnbY3Q8JXU-73" style="edgeStyle=none;html=1;dashed=1;fillColor=#b0e3e6;strokeColor=#0e8088;entryX=0.25;entryY=0;entryDx=0;entryDy=0;" edge="1" parent="1" target="VfVo40MpDsQj99MbKtfl-71">
                    <mxGeometry relative="1" as="geometry">
                        <mxPoint x="570" y="230" as="targetPoint"/>
                        <mxPoint x="180" y="240" as="sourcePoint"/>
                        <Array as="points">
                            <mxPoint x="180" y="300"/>
                            <mxPoint x="610" y="300"/>
                        </Array>
                    </mxGeometry>
                </mxCell>
                <mxCell id="XlvJEHAu8bwnbY3Q8JXU-74" style="edgeStyle=none;html=1;dashed=1;fillColor=#b0e3e6;strokeColor=#0e8088;entryX=0.25;entryY=0;entryDx=0;entryDy=0;" edge="1" parent="1" target="h55M-w-PevC6P2LLm7kX-99">
                    <mxGeometry relative="1" as="geometry">
                        <mxPoint x="530" y="320" as="targetPoint"/>
                        <mxPoint x="180" y="240" as="sourcePoint"/>
                        <Array as="points">
                            <mxPoint x="180" y="300"/>
                            <mxPoint x="370" y="300"/>
                        </Array>
                    </mxGeometry>
                </mxCell>
                <mxCell id="XlvJEHAu8bwnbY3Q8JXU-75" style="edgeStyle=none;html=1;dashed=1;fillColor=#b0e3e6;strokeColor=#0e8088;entryX=0.5;entryY=0;entryDx=0;entryDy=0;exitX=0.676;exitY=1.019;exitDx=0;exitDy=0;exitPerimeter=0;" edge="1" parent="1" source="h55M-w-PevC6P2LLm7kX-79" target="OIhovmfqD7Xepq9QtfI4-72">
                    <mxGeometry relative="1" as="geometry">
                        <mxPoint x="380" y="330" as="targetPoint"/>
                        <mxPoint x="190" y="250" as="sourcePoint"/>
                        <Array as="points"/>
                    </mxGeometry>
                </mxCell>
                <mxCell id="XlvJEHAu8bwnbY3Q8JXU-76" style="edgeStyle=none;html=1;dashed=1;fillColor=#b0e3e6;strokeColor=#0e8088;entryX=0.25;entryY=0;entryDx=0;entryDy=0;" edge="1" parent="1" target="OIhovmfqD7Xepq9QtfI4-81">
                    <mxGeometry relative="1" as="geometry">
                        <mxPoint x="190" y="330" as="targetPoint"/>
                        <mxPoint x="180" y="240" as="sourcePoint"/>
                        <Array as="points">
                            <mxPoint x="180" y="300"/>
                            <mxPoint x="60" y="300"/>
                            <mxPoint x="60" y="580"/>
                            <mxPoint x="130" y="580"/>
                        </Array>
                    </mxGeometry>
                </mxCell>
                <mxCell id="XlvJEHAu8bwnbY3Q8JXU-77" value="Page - ADR proposals" style="swimlane;startSize=20;" vertex="1" parent="1">
                    <mxGeometry x="320" y="600" width="200" height="240" as="geometry"/>
                </mxCell>
                <mxCell id="XlvJEHAu8bwnbY3Q8JXU-78" value="In work" style="rounded=1;whiteSpace=wrap;html=1;" vertex="1" parent="XlvJEHAu8bwnbY3Q8JXU-77">
                    <mxGeometry x="10" y="70" width="180" height="30" as="geometry"/>
                </mxCell>
                <mxCell id="XlvJEHAu8bwnbY3Q8JXU-79" value="" style="group" vertex="1" connectable="0" parent="XlvJEHAu8bwnbY3Q8JXU-77">
                    <mxGeometry y="20" width="200" height="40" as="geometry"/>
                </mxCell>
                <mxCell id="XlvJEHAu8bwnbY3Q8JXU-80" value="Header" style="rounded=1;whiteSpace=wrap;html=1;" vertex="1" parent="XlvJEHAu8bwnbY3Q8JXU-79">
                    <mxGeometry width="200" height="40" as="geometry"/>
                </mxCell>
                <mxCell id="XlvJEHAu8bwnbY3Q8JXU-81" value="Profile" style="ellipse;whiteSpace=wrap;html=1;" vertex="1" parent="XlvJEHAu8bwnbY3Q8JXU-79">
                    <mxGeometry x="140" y="5" width="50" height="30" as="geometry"/>
                </mxCell>
                <mxCell id="XlvJEHAu8bwnbY3Q8JXU-82" value="Logo" style="ellipse;whiteSpace=wrap;html=1;" vertex="1" parent="XlvJEHAu8bwnbY3Q8JXU-79">
                    <mxGeometry x="10" y="5" width="50" height="30" as="geometry"/>
                </mxCell>
                <mxCell id="XlvJEHAu8bwnbY3Q8JXU-84" value="author" style="rounded=0;whiteSpace=wrap;html=1;strokeWidth=1;" vertex="1" parent="XlvJEHAu8bwnbY3Q8JXU-77">
                    <mxGeometry x="10" y="120" width="50" height="20" as="geometry"/>
                </mxCell>
                <mxCell id="zNzqYblOjvgd2yedLTU6-71" value="his proposal" style="rounded=0;whiteSpace=wrap;html=1;strokeWidth=1;" vertex="1" parent="XlvJEHAu8bwnbY3Q8JXU-77">
                    <mxGeometry x="70" y="120" width="120" height="20" as="geometry"/>
                </mxCell>
                <mxCell id="zNzqYblOjvgd2yedLTU6-72" value="his proposal" style="rounded=0;whiteSpace=wrap;html=1;strokeWidth=1;" vertex="1" parent="XlvJEHAu8bwnbY3Q8JXU-77">
                    <mxGeometry x="70" y="150" width="120" height="20" as="geometry"/>
                </mxCell>
                <mxCell id="zNzqYblOjvgd2yedLTU6-73" value="his proposal" style="rounded=0;whiteSpace=wrap;html=1;strokeWidth=1;" vertex="1" parent="XlvJEHAu8bwnbY3Q8JXU-77">
                    <mxGeometry x="70" y="180" width="120" height="20" as="geometry"/>
                </mxCell>
                <mxCell id="zNzqYblOjvgd2yedLTU6-74" value="author" style="rounded=0;whiteSpace=wrap;html=1;strokeWidth=1;" vertex="1" parent="XlvJEHAu8bwnbY3Q8JXU-77">
                    <mxGeometry x="10" y="150" width="50" height="20" as="geometry"/>
                </mxCell>
                <mxCell id="zNzqYblOjvgd2yedLTU6-75" value="author" style="rounded=0;whiteSpace=wrap;html=1;strokeWidth=1;" vertex="1" parent="XlvJEHAu8bwnbY3Q8JXU-77">
                    <mxGeometry x="10" y="180" width="50" height="20" as="geometry"/>
                </mxCell>
                <mxCell id="sCFvdWs-3satiEqMQd8A-71" style="edgeStyle=none;html=1;dashed=1;fillColor=#b0e3e6;strokeColor=#0e8088;exitX=0.5;exitY=1;exitDx=0;exitDy=0;entryX=0.5;entryY=0;entryDx=0;entryDy=0;" edge="1" parent="1" source="h55M-w-PevC6P2LLm7kX-99" target="XlvJEHAu8bwnbY3Q8JXU-77">
                    <mxGeometry relative="1" as="geometry">
                        <mxPoint x="190" y="610" as="targetPoint"/>
                        <mxPoint x="380.0000000000001" y="570.0000000000001" as="sourcePoint"/>
                        <Array as="points"/>
                    </mxGeometry>
                </mxCell>
                <mxCell id="uWIo2mW73RjZxyhlXbPH-71" style="edgeStyle=none;html=1;dashed=1;fillColor=#b0e3e6;strokeColor=#0e8088;exitX=0.75;exitY=0;exitDx=0;exitDy=0;entryX=0.5;entryY=1;entryDx=0;entryDy=0;" edge="1" parent="1" source="XlvJEHAu8bwnbY3Q8JXU-77" target="VfVo40MpDsQj99MbKtfl-71">
                    <mxGeometry relative="1" as="geometry">
                        <mxPoint x="430" y="610" as="targetPoint"/>
                        <mxPoint x="430" y="570" as="sourcePoint"/>
                        <Array as="points">
                            <mxPoint x="470" y="580"/>
                            <mxPoint x="660" y="580"/>
                        </Array>
                    </mxGeometry>
                </mxCell>
                <mxCell id="uWIo2mW73RjZxyhlXbPH-73" style="edgeStyle=none;html=1;dashed=1;fillColor=#b0e3e6;strokeColor=#0e8088;entryX=1;entryY=0.5;entryDx=0;entryDy=0;" edge="1" parent="1" target="59">
                    <mxGeometry relative="1" as="geometry">
                        <mxPoint x="670" y="570" as="targetPoint"/>
                        <mxPoint x="470" y="600" as="sourcePoint"/>
                        <Array as="points">
                            <mxPoint x="470" y="580"/>
                            <mxPoint x="800" y="580"/>
                            <mxPoint x="800" y="160"/>
                        </Array>
                    </mxGeometry>
                </mxCell>
                <mxCell id="Aowg14sW_mjdpLD7GPFM-71" style="edgeStyle=none;html=1;dashed=1;fillColor=#b0e3e6;strokeColor=#0e8088;exitX=1;exitY=0.5;exitDx=0;exitDy=0;entryX=1;entryY=0.75;entryDx=0;entryDy=0;" edge="1" parent="1" source="VfVo40MpDsQj99MbKtfl-71" target="59">
                    <mxGeometry relative="1" as="geometry">
                        <mxPoint x="670" y="330" as="targetPoint"/>
                        <mxPoint x="670" y="290" as="sourcePoint"/>
                        <Array as="points">
                            <mxPoint x="780" y="440"/>
                            <mxPoint x="780" y="220"/>
                        </Array>
                    </mxGeometry>
                </mxCell>
                <mxCell id="CBam61l_q-cK4uz1kfe1-71" value="Page - ADR View" style="swimlane;startSize=20;" vertex="1" parent="1">
                    <mxGeometry x="560" y="600" width="200" height="240" as="geometry"/>
                </mxCell>
                <mxCell id="CBam61l_q-cK4uz1kfe1-73" value="Text for read" style="shape=process;whiteSpace=wrap;html=1;backgroundOutline=1;" vertex="1" parent="CBam61l_q-cK4uz1kfe1-71">
                    <mxGeometry x="10" y="110" width="180" height="120" as="geometry"/>
                </mxCell>
                <mxCell id="CBam61l_q-cK4uz1kfe1-74" value="" style="group" vertex="1" connectable="0" parent="CBam61l_q-cK4uz1kfe1-71">
                    <mxGeometry y="20" width="200" height="40" as="geometry"/>
                </mxCell>
                <mxCell id="CBam61l_q-cK4uz1kfe1-75" value="Header" style="rounded=1;whiteSpace=wrap;html=1;" vertex="1" parent="CBam61l_q-cK4uz1kfe1-74">
                    <mxGeometry width="200" height="40" as="geometry"/>
                </mxCell>
                <mxCell id="CBam61l_q-cK4uz1kfe1-76" value="Profile" style="ellipse;whiteSpace=wrap;html=1;" vertex="1" parent="CBam61l_q-cK4uz1kfe1-74">
                    <mxGeometry x="140" y="5" width="50" height="30" as="geometry"/>
                </mxCell>
                <mxCell id="CBam61l_q-cK4uz1kfe1-77" value="Logo" style="ellipse;whiteSpace=wrap;html=1;" vertex="1" parent="CBam61l_q-cK4uz1kfe1-74">
                    <mxGeometry x="10" y="5" width="50" height="30" as="geometry"/>
                </mxCell>
                <mxCell id="CBam61l_q-cK4uz1kfe1-78" value="Assepted/Closed" style="rounded=0;whiteSpace=wrap;html=1;strokeWidth=1;" vertex="1" parent="CBam61l_q-cK4uz1kfe1-71">
                    <mxGeometry x="10" y="70" width="180" height="30" as="geometry"/>
                </mxCell>
            </root>
        </mxGraphModel>
    </diagram>
    <diagram id="0_aiDWnWMGQI_jpSsa9u" name="Workflow">
        <mxGraphModel dx="1625" dy="659" grid="1" gridSize="10" guides="1" tooltips="1" connect="1" arrows="1" fold="1" page="1" pageScale="1" pageWidth="827" pageHeight="1169" math="0" shadow="0">
            <root>
                <mxCell id="pdxed0u12nCtiVzy3l__-0"/>
                <mxCell id="pdxed0u12nCtiVzy3l__-1" parent="pdxed0u12nCtiVzy3l__-0"/>
                <mxCell id="Ko0CnzsEHDBX_wZsev0m-0" value="Статус ADR" style="swimlane;fontStyle=0;childLayout=stackLayout;horizontal=1;startSize=30;horizontalStack=0;resizeParent=1;resizeParentMax=0;resizeLast=0;collapsible=1;marginBottom=0;" vertex="1" parent="pdxed0u12nCtiVzy3l__-1">
                    <mxGeometry x="-360" y="40" width="280" height="210" as="geometry">
                        <mxRectangle x="-800" y="40" width="100" height="30" as="alternateBounds"/>
                    </mxGeometry>
                </mxCell>
                <mxCell id="Ko0CnzsEHDBX_wZsev0m-1" value="1. In progress (версия драфта)" style="text;strokeColor=none;fillColor=none;align=left;verticalAlign=middle;spacingLeft=4;spacingRight=4;overflow=hidden;points=[[0,0.5],[1,0.5]];portConstraint=eastwest;rotatable=0;" vertex="1" parent="Ko0CnzsEHDBX_wZsev0m-0">
                    <mxGeometry y="30" width="280" height="30" as="geometry"/>
                </mxCell>
                <mxCell id="Ko0CnzsEHDBX_wZsev0m-2" value="2. Discussion (предложения)" style="text;strokeColor=none;fillColor=none;align=left;verticalAlign=middle;spacingLeft=4;spacingRight=4;overflow=hidden;points=[[0,0.5],[1,0.5]];portConstraint=eastwest;rotatable=0;" vertex="1" parent="Ko0CnzsEHDBX_wZsev0m-0">
                    <mxGeometry y="60" width="280" height="30" as="geometry"/>
                </mxCell>
                <mxCell id="Ko0CnzsEHDBX_wZsev0m-3" value="3. Voting ()" style="text;strokeColor=none;fillColor=none;align=left;verticalAlign=middle;spacingLeft=4;spacingRight=4;overflow=hidden;points=[[0,0.5],[1,0.5]];portConstraint=eastwest;rotatable=0;" vertex="1" parent="Ko0CnzsEHDBX_wZsev0m-0">
                    <mxGeometry y="90" width="280" height="30" as="geometry"/>
                </mxCell>
                <mxCell id="Ko0CnzsEHDBX_wZsev0m-4" value="4. Accepted" style="text;strokeColor=none;fillColor=none;align=left;verticalAlign=middle;spacingLeft=4;spacingRight=4;overflow=hidden;points=[[0,0.5],[1,0.5]];portConstraint=eastwest;rotatable=0;" vertex="1" parent="Ko0CnzsEHDBX_wZsev0m-0">
                    <mxGeometry y="120" width="280" height="30" as="geometry"/>
                </mxCell>
                <mxCell id="Ko0CnzsEHDBX_wZsev0m-5" value="5. Canceled" style="text;strokeColor=none;fillColor=none;align=left;verticalAlign=middle;spacingLeft=4;spacingRight=4;overflow=hidden;points=[[0,0.5],[1,0.5]];portConstraint=eastwest;rotatable=0;" vertex="1" parent="Ko0CnzsEHDBX_wZsev0m-0">
                    <mxGeometry y="150" width="280" height="30" as="geometry"/>
                </mxCell>
                <mxCell id="Ko0CnzsEHDBX_wZsev0m-6" value="6. Proposals (при отправке на доработку)" style="text;strokeColor=none;fillColor=none;align=left;verticalAlign=middle;spacingLeft=4;spacingRight=4;overflow=hidden;points=[[0,0.5],[1,0.5]];portConstraint=eastwest;rotatable=0;" vertex="1" parent="Ko0CnzsEHDBX_wZsev0m-0">
                    <mxGeometry y="180" width="280" height="30" as="geometry"/>
                </mxCell>
                <mxCell id="Ko0CnzsEHDBX_wZsev0m-7" style="edgeStyle=none;html=1;entryX=0.5;entryY=0;entryDx=0;entryDy=0;dashed=1;" edge="1" parent="pdxed0u12nCtiVzy3l__-1" source="Ko0CnzsEHDBX_wZsev0m-9" target="Ko0CnzsEHDBX_wZsev0m-12">
                    <mxGeometry relative="1" as="geometry"/>
                </mxCell>
                <mxCell id="Ko0CnzsEHDBX_wZsev0m-8" style="edgeStyle=none;html=1;entryX=0.55;entryY=0.95;entryDx=0;entryDy=0;entryPerimeter=0;dashed=1;" edge="1" parent="pdxed0u12nCtiVzy3l__-1" source="Ko0CnzsEHDBX_wZsev0m-9" target="Ko0CnzsEHDBX_wZsev0m-26">
                    <mxGeometry relative="1" as="geometry"/>
                </mxCell>
                <mxCell id="Ko0CnzsEHDBX_wZsev0m-9" value="&lt;span style=&quot;text-align: left&quot;&gt;In progress&lt;/span&gt;" style="rounded=0;whiteSpace=wrap;html=1;" vertex="1" parent="pdxed0u12nCtiVzy3l__-1">
                    <mxGeometry x="-660" y="170" width="80" height="40" as="geometry"/>
                </mxCell>
                <mxCell id="Ko0CnzsEHDBX_wZsev0m-10" style="edgeStyle=none;html=1;entryX=1;entryY=0.5;entryDx=0;entryDy=0;dashed=1;exitX=1;exitY=0.25;exitDx=0;exitDy=0;" edge="1" parent="pdxed0u12nCtiVzy3l__-1" source="Ko0CnzsEHDBX_wZsev0m-12" target="Ko0CnzsEHDBX_wZsev0m-9">
                    <mxGeometry relative="1" as="geometry">
                        <Array as="points">
                            <mxPoint x="-560" y="260"/>
                            <mxPoint x="-560" y="190"/>
                        </Array>
                    </mxGeometry>
                </mxCell>
                <mxCell id="Ko0CnzsEHDBX_wZsev0m-11" style="edgeStyle=none;html=1;exitX=0.5;exitY=1;exitDx=0;exitDy=0;entryX=0.5;entryY=0;entryDx=0;entryDy=0;dashed=1;" edge="1" parent="pdxed0u12nCtiVzy3l__-1" source="Ko0CnzsEHDBX_wZsev0m-12">
                    <mxGeometry relative="1" as="geometry">
                        <mxPoint x="-620" y="330" as="targetPoint"/>
                    </mxGeometry>
                </mxCell>
                <mxCell id="Ko0CnzsEHDBX_wZsev0m-12" value="&lt;span style=&quot;text-align: left&quot;&gt;Discussion&lt;/span&gt;" style="rounded=0;whiteSpace=wrap;html=1;" vertex="1" parent="pdxed0u12nCtiVzy3l__-1">
                    <mxGeometry x="-660" y="250" width="80" height="40" as="geometry"/>
                </mxCell>
                <mxCell id="Ko0CnzsEHDBX_wZsev0m-13" style="edgeStyle=none;html=1;entryX=0;entryY=0.5;entryDx=0;entryDy=0;dashed=1;" edge="1" parent="pdxed0u12nCtiVzy3l__-1" source="Ko0CnzsEHDBX_wZsev0m-14" target="Ko0CnzsEHDBX_wZsev0m-9">
                    <mxGeometry relative="1" as="geometry">
                        <Array as="points">
                            <mxPoint x="-800" y="430"/>
                            <mxPoint x="-800" y="190"/>
                        </Array>
                    </mxGeometry>
                </mxCell>
                <mxCell id="Ko0CnzsEHDBX_wZsev0m-14" value="&lt;span style=&quot;text-align: left&quot;&gt;Accepted&lt;/span&gt;" style="rounded=0;whiteSpace=wrap;html=1;" vertex="1" parent="pdxed0u12nCtiVzy3l__-1">
                    <mxGeometry x="-660" y="410" width="80" height="40" as="geometry"/>
                </mxCell>
                <mxCell id="Ko0CnzsEHDBX_wZsev0m-15" style="edgeStyle=none;html=1;entryX=0;entryY=0.5;entryDx=0;entryDy=0;dashed=1;exitX=0;exitY=0.5;exitDx=0;exitDy=0;" edge="1" parent="pdxed0u12nCtiVzy3l__-1" source="Ko0CnzsEHDBX_wZsev0m-16" target="Ko0CnzsEHDBX_wZsev0m-9">
                    <mxGeometry relative="1" as="geometry">
                        <Array as="points">
                            <mxPoint x="-800" y="350"/>
                            <mxPoint x="-800" y="190"/>
                        </Array>
                    </mxGeometry>
                </mxCell>
                <mxCell id="Ko0CnzsEHDBX_wZsev0m-16" value="&lt;span style=&quot;text-align: left&quot;&gt;Canceled&lt;/span&gt;" style="rounded=0;whiteSpace=wrap;html=1;" vertex="1" parent="pdxed0u12nCtiVzy3l__-1">
                    <mxGeometry x="-780" y="330" width="80" height="40" as="geometry"/>
                </mxCell>
                <mxCell id="Ko0CnzsEHDBX_wZsev0m-17" style="edgeStyle=none;html=1;exitX=1;exitY=0.5;exitDx=0;exitDy=0;entryX=1;entryY=0.5;entryDx=0;entryDy=0;dashed=1;" edge="1" parent="pdxed0u12nCtiVzy3l__-1" source="Ko0CnzsEHDBX_wZsev0m-24" target="Ko0CnzsEHDBX_wZsev0m-9">
                    <mxGeometry relative="1" as="geometry">
                        <mxPoint x="-499.9999999999998" y="330" as="sourcePoint"/>
                        <Array as="points">
                            <mxPoint x="-440" y="350"/>
                            <mxPoint x="-440" y="190"/>
                        </Array>
                    </mxGeometry>
                </mxCell>
                <mxCell id="Ko0CnzsEHDBX_wZsev0m-18" value="rework&lt;br&gt;(bump version)" style="edgeLabel;html=1;align=center;verticalAlign=middle;resizable=0;points=[];" vertex="1" connectable="0" parent="Ko0CnzsEHDBX_wZsev0m-17">
                    <mxGeometry x="-0.4909" y="-1" relative="1" as="geometry">
                        <mxPoint as="offset"/>
                    </mxGeometry>
                </mxCell>
                <mxCell id="Ko0CnzsEHDBX_wZsev0m-19" style="edgeStyle=none;html=1;entryX=0.5;entryY=0;entryDx=0;entryDy=0;dashed=1;" edge="1" parent="pdxed0u12nCtiVzy3l__-1" source="Ko0CnzsEHDBX_wZsev0m-22" target="Ko0CnzsEHDBX_wZsev0m-14">
                    <mxGeometry relative="1" as="geometry"/>
                </mxCell>
                <mxCell id="Ko0CnzsEHDBX_wZsev0m-20" value="" style="edgeStyle=none;html=1;dashed=1;" edge="1" parent="pdxed0u12nCtiVzy3l__-1" source="Ko0CnzsEHDBX_wZsev0m-22" target="Ko0CnzsEHDBX_wZsev0m-16">
                    <mxGeometry relative="1" as="geometry"/>
                </mxCell>
                <mxCell id="Ko0CnzsEHDBX_wZsev0m-21" value="" style="edgeStyle=none;html=1;dashed=1;" edge="1" parent="pdxed0u12nCtiVzy3l__-1" source="Ko0CnzsEHDBX_wZsev0m-22">
                    <mxGeometry relative="1" as="geometry">
                        <mxPoint x="-540" y="350" as="targetPoint"/>
                    </mxGeometry>
                </mxCell>
                <mxCell id="Ko0CnzsEHDBX_wZsev0m-22" value="&lt;span style=&quot;text-align: left&quot;&gt;Voting&lt;/span&gt;" style="rhombus;whiteSpace=wrap;html=1;" vertex="1" parent="pdxed0u12nCtiVzy3l__-1">
                    <mxGeometry x="-660" y="330" width="80" height="40" as="geometry"/>
                </mxCell>
                <mxCell id="Ko0CnzsEHDBX_wZsev0m-23" value="no proposals" style="edgeStyle=none;html=1;entryX=1;entryY=0.75;entryDx=0;entryDy=0;dashed=1;" edge="1" parent="pdxed0u12nCtiVzy3l__-1" source="Ko0CnzsEHDBX_wZsev0m-24" target="Ko0CnzsEHDBX_wZsev0m-12">
                    <mxGeometry relative="1" as="geometry">
                        <Array as="points">
                            <mxPoint x="-500" y="280"/>
                        </Array>
                    </mxGeometry>
                </mxCell>
                <mxCell id="Ko0CnzsEHDBX_wZsev0m-24" value="&lt;span style=&quot;text-align: left&quot;&gt;Proposals&lt;/span&gt;" style="rhombus;whiteSpace=wrap;html=1;" vertex="1" parent="pdxed0u12nCtiVzy3l__-1">
                    <mxGeometry x="-540" y="330" width="80" height="40" as="geometry"/>
                </mxCell>
                <mxCell id="Ko0CnzsEHDBX_wZsev0m-25" value="&lt;h1&gt;Штраф&lt;/h1&gt;&lt;p&gt;Если участник проголосовал против, но не предложил варианты изменений или не указал причины отказа, то вес его голоса в повторных голосованиях снижается на 1.&lt;/p&gt;" style="text;html=1;strokeColor=none;fillColor=none;spacing=5;spacingTop=-20;whiteSpace=wrap;overflow=hidden;rounded=0;" vertex="1" parent="pdxed0u12nCtiVzy3l__-1">
                    <mxGeometry x="-800" y="470" width="380" height="100" as="geometry"/>
                </mxCell>
                <mxCell id="Ko0CnzsEHDBX_wZsev0m-26" value="remove&lt;br&gt;(только не запаблишеную adr)" style="ellipse;shape=cloud;whiteSpace=wrap;html=1;" vertex="1" parent="pdxed0u12nCtiVzy3l__-1">
                    <mxGeometry x="-690" y="40" width="130" height="95" as="geometry"/>
                </mxCell>
                <mxCell id="Ko0CnzsEHDBX_wZsev0m-27" value="" style="endArrow=classic;html=1;dashed=1;entryX=0.5;entryY=0;entryDx=0;entryDy=0;exitX=0;exitY=0.5;exitDx=0;exitDy=0;" edge="1" parent="pdxed0u12nCtiVzy3l__-1" source="Ko0CnzsEHDBX_wZsev0m-12" target="Ko0CnzsEHDBX_wZsev0m-16">
                    <mxGeometry width="50" height="50" relative="1" as="geometry">
                        <mxPoint x="-810" y="310" as="sourcePoint"/>
                        <mxPoint x="-760" y="260" as="targetPoint"/>
                        <Array as="points">
                            <mxPoint x="-740" y="270"/>
                        </Array>
                    </mxGeometry>
                </mxCell>
                <mxCell id="Ko0CnzsEHDBX_wZsev0m-32" value="&lt;h1&gt;Результаты голосование&lt;/h1&gt;&lt;p&gt;&lt;/p&gt;&lt;ul&gt;&lt;li&gt;&lt;span&gt;60&amp;gt;=% yes: Accepted,&amp;nbsp;&lt;/span&gt;Proposals.&lt;/li&gt;&lt;li&gt;&lt;span&gt;60&amp;lt;%&amp;nbsp;yes: Canceled, Proposals.&lt;/span&gt;&lt;/li&gt;&lt;/ul&gt;&lt;p&gt;&lt;/p&gt;" style="text;html=1;strokeColor=none;fillColor=none;spacing=5;spacingTop=-20;whiteSpace=wrap;overflow=hidden;rounded=0;" vertex="1" parent="pdxed0u12nCtiVzy3l__-1">
                    <mxGeometry x="-360" y="280" width="320" height="120" as="geometry"/>
                </mxCell>
            </root>
        </mxGraphModel>
    </diagram>
</mxfile>